<svg preserveAspectRatio="none" width="100%" height="100%" overflow="visible" style="display: block;" viewBox="0 0 16 16" fill="none" xmlns="http://www.w3.org/2000/svg">
<g id="amex">
<path id="Vector" d="M0 0V7.97501V16H7.99977H16V8.00022V0H8.00287H0Z" fill="var(--fill-0, white)"/>
<path id="Vector_2" d="M13.1467 3.92534L13.6587 2.53334H16V0H0V16H16V13.472H13.792L12.976 12.5173L12.128 13.472H5.856V8.38935H3.78665L6.37334 2.53334H8.89065L9.49866 3.86134V2.53334H12.624L13.1467 3.92534ZM11.3813 4.84801L11.376 4.288L11.5893 4.84801L12.6293 7.62666H13.664L14.7093 4.84801L14.912 4.29334V7.62666H16V3.36H14.192L13.3707 5.52535L13.152 6.112L12.928 5.52535L12.1013 3.36H10.2933V7.62666H11.3813V4.84801ZM9.04 7.62666H10.2933L8.416 3.36H6.96L5.07199 7.62666H6.30935L6.64 6.80534H8.70935L9.04 7.62666ZM7.46135 4.80535L7.67465 4.272L7.888 4.80535L8.33066 5.88266H7.01865L7.46135 4.80535ZM6.73065 8.39465V12.6453H10.2933V11.7227H7.81866V10.9813H10.2453V10.064H7.81866V9.31734H10.2933V8.39465H6.73065ZM14.256 12.6453H15.6694L13.6747 10.512L15.6694 8.39465H14.2773L12.992 9.77601L11.712 8.39465H10.2933L12.2827 10.528L10.2933 12.6453H11.6693L12.9653 11.2587L14.256 12.6453ZM14.7947 10.5067L16 11.7333V9.29601L14.7947 10.5067Z" fill="var(--fill-0, #006FCF)"/>
</g>
</svg>
