<svg preserveAspectRatio="none" width="100%" height="100%" overflow="visible" style="display: block;" viewBox="0 0 10.2271 10.2271" fill="none" xmlns="http://www.w3.org/2000/svg">
<path id="Subtract" fill-rule="evenodd" clip-rule="evenodd" d="M8.08983 0H2.13248C0.954889 0 0 0.954957 0 2.13261V8.09451C0 9.27216 0.954889 10.2271 2.13248 10.2271H8.09439C9.27197 10.2271 10.2271 9.27216 10.2271 8.09451V2.13261C10.2223 0.954957 9.26742 0 8.08983 0ZM8.08555 4.33221C6.91123 4.33221 5.96138 5.27796 5.96138 6.4372V7.61H4.16959V6.4372C4.16959 5.50065 4.50632 4.63825 5.06319 3.96608C5.78369 3.10367 6.86904 2.55678 8.08555 2.55678V4.33221ZM2.04542 2.56115V4.33223C2.76592 4.33223 3.40231 4.68916 3.79068 5.23145C3.96377 4.61501 4.27263 4.04945 4.68427 3.57184C3.98704 2.94594 3.06072 2.56115 2.04542 2.56115Z" fill="var(--fill-0, black)"/>
</svg>
