<svg preserveAspectRatio="none" width="100%" height="100%" overflow="visible" style="display: block;" viewBox="0 0 22 6.85111" fill="none" xmlns="http://www.w3.org/2000/svg">
<g id="visa">
<g id="Union">
<path d="M8.88398 0.135686L7.77136 6.77286H9.55017L10.6636 0.135686H8.88398Z" fill="var(--fill-0, #1A1F71)"/>
<path d="M14.3849 0C15.0748 0 15.6273 0.144298 15.9799 0.278764L15.7387 1.71724L15.5792 1.64065C15.2508 1.50618 14.8291 1.37717 14.2472 1.38636C13.5504 1.38636 13.228 1.68137 13.228 1.95725C13.2239 2.26815 13.6049 2.47304 14.2269 2.78008C15.2537 3.25383 15.7278 3.82834 15.7212 4.5834C15.7074 5.96119 14.4929 6.85111 12.6221 6.85111C11.824 6.84277 11.0554 6.68234 10.6397 6.49698L10.8894 5.01121L11.1188 5.11669C11.7033 5.36439 12.0817 5.46499 12.794 5.46499C13.3055 5.46499 13.8543 5.26183 13.8587 4.8169C13.8621 4.52644 13.6292 4.31901 12.9365 3.9936C12.2614 3.67615 11.3672 3.14408 11.3771 2.19038C11.3877 0.900203 12.6263 0 14.3849 0Z" fill="var(--fill-0, #1A1F71)"/>
<path fill-rule="evenodd" clip-rule="evenodd" d="M19.1844 0.135584H20.5595L22 6.76849H20.3486C20.3486 6.76849 20.1853 6.00631 20.1321 5.77393C19.9945 5.77393 19.4201 5.77313 18.88 5.77238C18.4009 5.77171 17.9489 5.77108 17.8529 5.77108C17.7837 5.95067 17.4783 6.76849 17.4783 6.76849H15.6095L18.2525 0.685993C18.4396 0.253776 18.7584 0.135584 19.1844 0.135584ZM18.3777 4.42137H19.855C19.7838 4.08917 19.443 2.50484 19.443 2.50484L19.3227 1.9326C19.2754 2.06378 19.2097 2.23728 19.1595 2.36962C19.1143 2.48869 19.0818 2.57444 19.0868 2.56607C19.0868 2.56607 18.525 4.0388 18.3777 4.42137Z" fill="var(--fill-0, #1A1F71)"/>
<path d="M4.51824 4.66186L6.26057 0.135584L8.14581 0.135517L5.34403 6.76015L3.46109 6.76228L1.88193 1.00886C1.33187 0.697214 0.703425 0.44686 0 0.273764L0.0227468 0.135671H2.89247C3.279 0.150317 3.59151 0.275934 3.69921 0.696216L4.30454 3.65503C4.31441 3.6841 4.32378 3.71311 4.33263 3.74206L4.51824 4.66186Z" fill="var(--fill-0, #1A1F71)"/>
</g>
</g>
</svg>
