<svg preserveAspectRatio="none" width="100%" height="100%" overflow="visible" style="display: block;" viewBox="0 0 58.848 28.252" fill="none" xmlns="http://www.w3.org/2000/svg">
<g id="Teya">
<path d="M0.0180016 13.726C0 13.219 0 12.783 0.0180016 12.475H0V1.306C1.134 0.762 2.324 0.326 3.55 0V4.914H8.362V8.287H3.55V12.5015C3.54998 12.8449 3.54994 13.3242 3.586 13.908C3.604 14.325 3.641 14.705 3.678 14.905C3.68052 14.92 3.68326 14.9367 3.68626 14.955C3.77015 15.4668 4.05819 17.2238 5.489 18.169C5.782 18.368 6.459 18.749 7.539 18.767H8.362V22.23H7.465C7.209 22.23 6.862 22.23 6.441 22.194C6.43623 22.1933 6.43054 22.1925 6.42394 22.1916C6.07632 22.1438 3.22359 21.7511 1.463 19.438C0.201 17.77 0.109001 15.902 0.0180016 13.726Z" fill="var(--fill-0, #151515)"/>
<path fill-rule="evenodd" clip-rule="evenodd" d="M22.324 16.8459C21.922 17.3719 21.281 18.0419 20.329 18.4959C18.317 19.4389 16.066 18.8579 14.84 17.9699C14.5119 17.7375 14.2765 17.4788 14.1813 17.3741C14.1651 17.3564 14.1529 17.3429 14.145 17.3349C13.614 16.7369 13.248 15.9749 13.065 15.0689H25.929C26.02 14.4519 26.057 13.9629 26.057 13.5819C26.057 11.1699 25.307 9.10293 23.77 7.41693C22.251 5.73093 20.311 4.87793 17.932 4.87793C15.425 4.87793 13.394 5.71193 11.784 7.36193C10.192 9.03093 9.38702 11.0799 9.38702 13.5459C9.38702 16.0479 10.192 18.1329 11.802 19.7649C12.278 20.2359 12.791 20.6539 13.358 20.9979C15.48 22.2849 17.768 22.2489 18.17 22.2309C18.902 22.2129 21.373 22.0859 23.459 20.2179C24.264 19.5109 24.758 18.7499 25.051 18.2239C24.191 17.7699 23.257 17.2989 22.324 16.8459ZM14.694 9.19393C15.554 8.46893 16.633 8.10593 17.932 8.10593C19.067 8.10593 20.073 8.44993 20.915 9.12093C21.775 9.80993 22.306 10.8079 22.544 12.1489H13.047C13.285 10.9159 13.834 9.91893 14.694 9.19393Z" fill="var(--fill-0, #151515)"/>
<path fill-rule="evenodd" clip-rule="evenodd" d="M58.848 5.42292H55.372C55.372 6.03893 55.372 6.65592 55.39 7.30793C55.042 6.94592 54.511 6.43793 53.743 5.98493C52.078 5.02392 50.468 5.02393 49.754 5.02393C49.242 5.02393 48.217 5.04193 46.99 5.51293C45.912 5.91193 44.941 6.58293 44.082 7.48993C42.526 9.13993 41.739 11.1709 41.739 13.5819C41.739 15.9759 42.507 17.9879 44.082 19.6559C45.655 21.3249 47.54 22.1589 49.754 22.1589C50.101 22.1589 51.693 22.1219 53.45 21.2159C54.329 20.7629 54.95 20.2369 55.372 19.8379V21.7239H58.848V5.42292ZM50.285 18.7859C48.82 18.7859 47.613 18.2969 46.643 17.2989C45.674 16.3019 45.198 15.0689 45.198 13.5639C45.198 12.0589 45.674 10.8259 46.643 9.82893C47.613 8.83093 48.82 8.34193 50.285 8.34193C51.749 8.34193 52.956 8.83093 53.926 9.82893C54.896 10.8259 55.372 12.0589 55.372 13.5639C55.372 15.0689 54.896 16.3019 53.926 17.2989C52.956 18.2969 51.749 18.7859 50.285 18.7859Z" fill="var(--fill-0, #151515)"/>
<path d="M36.5037 10.5504L36.5065 10.5422C37.1405 8.71967 37.7744 6.89748 38.408 5.07903L42.196 5.06104C41.867 5.96704 41.373 7.36303 40.787 9.06804C40.3228 10.4149 39.9408 11.5534 39.5946 12.5856L39.5934 12.589C38.8214 14.8901 38.2265 16.6635 37.292 19.041C36.03 22.232 35.28 23.701 34.017 25.133C32.718 26.62 31.528 27.291 30.65 27.654C29.735 28.034 28.93 28.179 28.344 28.252V24.607C28.82 24.535 29.625 24.335 30.394 23.737C30.76 23.465 31.638 22.794 31.839 21.67C31.949 20.999 31.803 20.419 31.675 19.965C31.565 19.567 31.437 19.222 31.327 19.023C30.991 18.2863 30.6548 17.5456 30.3186 16.8049L30.3182 16.8039C29.959 16.0127 29.5999 15.2215 29.241 14.435C28.5036 12.7297 27.5825 10.5497 26.4704 7.91805L26.467 7.9101C26.09 7.01798 25.6911 6.074 25.27 5.07903H29.186C29.79 6.69304 30.412 8.32403 31.107 10.011C32.132 12.495 33.175 14.834 34.236 17.064C34.992 14.8962 35.7479 12.7231 36.5037 10.5504Z" fill="var(--fill-0, #151515)"/>
</g>
</svg>
