<?xml version="1.0" encoding="UTF-8"?>
<svg id="Camada_1" xmlns="http://www.w3.org/2000/svg" version="1.1" viewBox="0 0 305.71 313.06">
  <!-- Generator: Adobe Illustrator 30.5.1, SVG Export Plug-In . SVG Version: 2.1.4 Build 3)  -->
  <defs>
    <style>
      .st0 {
        fill: #f6f5f3;
      }
    </style>
  </defs>
  <path class="st0" d="M304.39,189.65c.94-3.36,1.38-6.73,1.31-10.12-.07-3.11-.19-6.23-.36-9.34-.17-3.11-.4-6.22-.67-9.33-.26-3.02-.44-6.04-.52-9.06-.09-3.09-.19-6.18-.31-9.28-.11-2.92,0-5.84.36-8.76.38-3.15.65-6.31.8-9.46.16-3.34-.11-6.67-.81-9.99-.58-2.79-.74-5.57-.48-8.34.28-3.02.67-6.05,1.15-9.08.56-3.54.33-7.06-.68-10.52-.81-2.77-1.2-5.55-1.19-8.34.02-3.46-.58-6.82-1.79-10.08-.97-2.62-1.51-5.33-1.62-8.15-.14-3.76-1.37-7.17-3.68-10.15-1.77-2.29-3.22-4.72-4.34-7.3-1.35-3.1-3.17-5.91-5.45-8.41-1.97-2.17-3.83-4.46-5.56-6.88-2.03-2.84-4.54-5.18-7.51-7-2.52-1.55-4.92-3.25-7.2-5.11-2.68-2.18-5.68-3.79-8.97-4.82-2.95-.92-5.89-1.8-8.82-2.64-3.03-.86-6.12-1.52-9.26-1.97-2.87-.41-5.74-1.02-8.6-1.82-3.32-.93-6.7-1.29-10.14-1.06-2.91.19-5.82.13-8.71-.19-3.21-.36-6.43-.48-9.65-.37-2.86.1-5.72-.11-8.59-.62-3.17-.57-6.35-.98-9.53-1.24-3.23-.26-6.46-.27-9.69-.05-3.17.22-6.34.57-9.5,1.06-2.85.44-5.68.54-8.52.3-3.32-.28-6.64-.17-9.95.34-2.79.43-5.58.45-8.37.06-1.55-.22-2.74-.37-3.57-.46-.41-.04-.77-.08-1.06-.09-.13,0-.34-.01-.56,0-.09,0-.33.02-.61.09,0,0-.01,0-.02,0-.13,0-.31.02-.58.03-.74.02-1.86.04-3.4.04-3.16,0-6.32.13-9.48.39-2.77.22-5.56.03-8.36-.58-3.54-.78-7.1-.72-10.61.19-2.62.67-5.24.73-7.91.18-3.36-.7-6.73-.95-10.09-.75-3.19.19-6.38.55-9.54,1.06-3.41.56-6.67,1.69-9.76,3.37-2.57,1.4-5.2,2.41-7.9,3.04-3.02.7-6.08,1.48-9.19,2.33-3.67,1.01-6.76,3.02-9.19,5.96-1.93,2.33-4,4.4-6.21,6.21-2.47,2.02-4.8,4.2-7,6.54-2.28,2.43-4.22,5.11-5.81,8.04-1.49,2.75-2.9,5.52-4.22,8.3-1.23,2.58-2.7,5.12-4.41,7.61-2.14,3.12-3.22,6.6-3.21,10.37,0,2.75-.53,5.4-1.62,7.99-1.45,3.45-1.92,7.05-1.38,10.72.46,3.1.87,6.19,1.23,9.25.33,2.75.19,5.48-.43,8.21-.78,3.46-.84,6.94-.18,10.43.49,2.62.38,5.23-.36,7.88-.99,3.52-1.14,7.08-.45,10.62.55,2.84.74,5.66.56,8.48-.2,3.14-.3,6.28-.3,9.42,0,3.14.08,6.28.27,9.42.19,3.11.42,6.22.71,9.34.25,2.69-.02,5.38-.83,8.11-.97,3.26-1.6,6.54-1.9,9.83-.3,3.34-.17,6.68.4,10.02.48,2.85.62,5.68.4,8.52-.24,3.2-.3,6.4-.17,9.6.14,3.32.66,6.61,1.56,9.87.79,2.87,1.3,5.74,1.54,8.59.25,3.06.51,6.11.78,9.16.26,2.97.43,5.98.5,9.04.08,3.29.43,6.57,1.05,9.84.66,3.49,1.95,6.73,3.86,9.72,1.82,2.85,3.92,5.46,6.3,7.83,2.22,2.21,4.4,4.39,6.55,6.55,2.11,2.13,4.17,4.31,6.19,6.56,2.16,2.4,4.5,4.62,7.03,6.64,2.56,2.05,5.3,3.83,8.21,5.33,2.78,1.44,5.61,2.8,8.47,4.1,3.06,1.39,6.25,2.35,9.56,2.89,3.09.5,6.18.95,9.27,1.33,3.22.4,6.46.53,9.72.38,2.85-.13,5.67.09,8.49.65,3.37.68,6.78.79,10.19.33,2.92-.39,5.83-.52,8.73-.4,2.93.12,5.87.45,8.81.99,3.46.64,6.94.59,10.4-.15,2.86-.61,5.72-.89,8.57-.83,2.85.05,5.7.44,8.56,1.17,3.25.82,6.51,1.35,9.77,1.57,3.16.22,6.33.3,9.49.26,3.3-.05,6.59-.45,9.87-1.2,2.94-.67,5.87-1.11,8.8-1.33,3.02-.22,6.04-.35,9.06-.4,2.81-.04,5.65.28,8.5.96,3.28.79,6.57,1.24,9.87,1.36,3.29.12,6.56-.08,9.83-.59,2.92-.46,5.85-.68,8.81-.67,3.47.02,6.85-.55,10.15-1.7,3.05-1.06,6.02-2.22,8.92-3.48,2.84-1.23,5.65-2.45,8.43-3.66,2.88-1.25,5.7-2.65,8.46-4.2,2.79-1.56,5.46-3.3,8.03-5.22,2.55-1.9,5-3.95,7.34-6.12,2.28-2.12,4.55-4.29,6.82-6.51,2.63-2.57,4.46-5.68,5.48-9.26.85-3.01,1.81-5.87,2.87-8.59,1.09-2.82,2.19-5.65,3.29-8.5,1.13-2.93,2.14-5.93,3.02-8.99.94-3.26,1.39-6.59,1.36-9.98-.04-3.1-.07-6.19-.11-9.27-.04-2.85.25-5.7.85-8.55.68-3.22,1.09-6.46,1.23-9.72.14-3.37-.2-6.73-1.01-10.08-.62-2.58-.58-5.14.15-7.73ZM130.69,1.94s-.1.07-.15.11c.05-.04.1-.08.15-.11ZM130.39,2.19c-.07.06-.13.14-.2.22.07-.08.14-.16.2-.22ZM130.06,2.56c-.11.15-.22.31-.31.5.09-.19.2-.36.31-.5Z"/>
</svg>