<svg preserveAspectRatio="none" width="100%" height="100%" overflow="visible" style="display: block;" viewBox="0 0 20 12.4622" fill="none" xmlns="http://www.w3.org/2000/svg">
<g id="mastercard">
<path id="Vector" d="M12.9765 1.33234H7.02603V11.1288H12.9765V1.33234Z" fill="var(--fill-0, #FF5F00)"/>
<path id="Vector_2" d="M7.63893 6.23143C7.63819 5.28812 7.85034 4.357 8.25931 3.50853C8.66829 2.66007 9.26338 1.91649 9.99955 1.33408C9.08777 0.611796 7.99278 0.162654 6.83974 0.037981C5.6867 -0.086692 4.52212 0.118134 3.4791 0.62905C2.43608 1.13997 1.55671 1.93636 0.941484 2.92721C0.326257 3.91806 0 5.06339 0 6.2323C0 7.40121 0.326257 8.54654 0.941484 9.53738C1.55671 10.5282 2.43608 11.3246 3.4791 11.8355C4.52212 12.3465 5.6867 12.5513 6.83974 12.4266C7.99278 12.3019 9.08777 11.8528 9.99955 11.1305C9.26315 10.5479 8.66792 9.80407 8.25894 8.95528C7.84995 8.1065 7.63793 7.17503 7.63893 6.23143V6.23143Z" fill="var(--fill-0, #EB001B)"/>
<path id="Vector_3" d="M20 6.23144C20 7.40044 19.6736 8.54584 19.0583 9.53672C18.443 10.5276 17.5635 11.324 16.5203 11.8348C15.4772 12.3457 14.3125 12.5504 13.1594 12.4255C12.0063 12.3007 10.9113 11.8513 9.99954 11.1288C10.7354 10.5459 11.3303 9.80208 11.7394 8.95357C12.1485 8.10505 12.3611 7.17397 12.3611 6.23057C12.3611 5.28717 12.1485 4.35609 11.7394 3.50758C11.3303 2.65907 10.7354 1.91529 9.99954 1.33235C10.9113 0.60985 12.0063 0.160489 13.1594 0.0356368C14.3125 -0.0892153 15.4772 0.115479 16.5203 0.626323C17.5635 1.13717 18.443 1.93354 19.0583 2.92443C19.6736 3.91531 20 5.06071 20 6.22971V6.23144Z" fill="var(--fill-0, #F79E1B)"/>
</g>
</svg>
