<svg preserveAspectRatio="none" width="100%" height="100%" overflow="visible" style="display: block;" viewBox="0 0 40 40" fill="none" xmlns="http://www.w3.org/2000/svg">
<path id="Subtract" fill-rule="evenodd" clip-rule="evenodd" d="M31.6407 0H8.34048C3.73473 0 0 3.735 0 8.341V31.659C0 36.265 3.73473 40 8.34048 40H31.6585C36.2643 40 40 36.265 40 31.659V8.341C39.9812 3.735 36.2464 0 31.6407 0ZM31.624 16.944C27.031 16.944 23.316 20.643 23.316 25.177V29.764H16.308V25.177C16.308 21.514 17.625 18.141 19.803 15.512C22.621 12.139 26.866 10 31.624 10V16.944ZM8 10.0171V16.9441C10.818 16.9441 13.307 18.3401 14.826 20.4611C15.503 18.0501 16.711 15.8381 18.321 13.9701C15.594 11.5221 11.971 10.0171 8 10.0171Z" fill="var(--fill-0, black)"/>
</svg>
